# xmcd
#
# Track frame offsets:
#	150
#	24002
#	49647
#	72897
#	89717
#	105447
#	138827
#	150687
#
# Disc length: 2396 seconds
#
# Revision: 0
# Processed by: cddbd v1.4PL0 Copyright (c) Steve Scherf et al.
# Submitted via: CD2X 1.2
#
DISCID=5a095a08
DTITLE=Dodo Ferreira - Farofa Blues
DYEAR=1993
DGENRE=blues
TTITLE0=Domingus Blues
TTITLE1=Debora Blues
TTITLE2=Farofa Blues
TTITLE3=Pedrums
TTITLE4=Nena's Blues
TTITLE5=M'boranga Blues
TTITLE6=Jazz - Jazz
TTITLE7=Better git it in your soul
EXTD=
EXTT0=
EXTT1=
EXTT2=
EXTT3=
EXTT4=
EXTT5=
EXTT6=
EXTT7=
PLAYORDER=
